<?xml version="1.0" standalone="no"?>
<!DOCTYPE svg PUBLIC "-//W3C//DTD SVG 20010904//EN"
 "http://www.w3.org/TR/2001/REC-SVG-20010904/DTD/svg10.dtd">
<svg version="1.0" xmlns="http://www.w3.org/2000/svg"
 width="375.000000pt" height="375.000000pt" viewBox="0 0 375.000000 375.000000"
 preserveAspectRatio="xMidYMid meet">
<metadata>
Created by potrace 1.14, written by Peter Selinger 2001-2017
</metadata>
<g transform="translate(0.000000,375.000000) scale(0.100000,-0.100000)"
fill="#000000" stroke="none">
<path d="M1868 3332 c-10 -2 -18 -8 -18 -14 0 -8 -262 -608 -357 -818 -14 -30
-57 -127 -95 -215 -38 -88 -81 -185 -95 -215 -14 -30 -58 -129 -98 -220 -341
-774 -392 -882 -493 -1035 -104 -156 -240 -277 -374 -331 -43 -17 -48 -22 -48
-51 l0 -33 544 0 544 0 4 30 c3 17 2 32 -1 34 -3 2 -43 13 -89 25 -169 44
-277 115 -328 218 -26 53 -29 67 -29 163 0 138 27 223 167 530 l29 65 539 0
c296 0 542 -3 546 -7 10 -11 240 -540 269 -620 57 -159 28 -261 -90 -318 -47
-23 -176 -50 -236 -50 -38 0 -38 -1 -37 -35 l1 -35 674 0 674 0 -3 31 c-3 30
-8 33 -81 59 -84 30 -167 81 -212 132 -73 82 -173 271 -320 603 -32 72 -68
153 -80 180 -13 28 -204 457 -425 955 -221 498 -409 920 -418 939 -17 34 -30
41 -64 33z m442 -1342 c243 -547 469 -1049 502 -1115 73 -145 135 -242 202
-312 27 -29 45 -53 40 -54 -14 -1 -496 -1 -521 0 -22 1 -21 3 13 48 20 26 41
59 47 73 19 46 16 118 -8 183 -17 48 -575 1312 -674 1529 -11 24 -60 134 -110
246 l-89 202 40 93 c22 50 49 112 60 137 l20 45 18 -40 c10 -22 216 -488 460
-1035z m-510 410 c67 -151 135 -303 151 -338 16 -35 29 -65 29 -67 0 -3 54
-125 80 -180 26 -54 110 -250 110 -255 0 -3 -225 -6 -500 -6 -275 1 -500 1
-500 3 0 2 98 227 130 298 10 22 46 105 80 185 35 80 75 172 90 205 14 33 64
147 110 253 46 106 87 189 91 185 4 -5 62 -132 129 -283z m-956 -1574 c-4 -87
35 -198 98 -278 26 -33 27 -38 11 -39 -26 -1 -354 -1 -381 0 -21 1 -18 6 25
39 71 56 138 135 195 229 28 46 52 83 52 83 1 0 1 -15 0 -34z"/>
</g>
</svg>
